<svg xmlns="http://www.w3.org/2000/svg" width="440" height="228" viewBox="0 0 440 228" fill="none">
<rect width="440" height="228" fill="#ffffff" rx="6"/>
  <text x="16" y="22" fill="#0969da" font-size="13" font-family="system-ui,-apple-system,sans-serif" font-weight="bold">🈷️  Languages</text>
  <line x1="16" y1="30" x2="424" y2="30" stroke="#d0d7de" stroke-width="1"/>
  <text x="16" y="46" fill="#24292f" font-size="10" font-family="Menlo,'Meslo LG','Helvetica Neue',monospace">JavaScript</text>
  <rect x="110" y="41" width="138.125" height="9" fill="#f1e05a" rx="4.5"/>
  <text x="300" y="46" fill="#57606a" font-size="10" font-family="Menlo,'Meslo LG','Helvetica Neue',monospace">81.3%</text>
  <text x="16" y="72" fill="#24292f" font-size="10" font-family="Menlo,'Meslo LG','Helvetica Neue',monospace">HTML</text>
  <rect x="110" y="67" width="14.166666666666664" height="9" fill="#e34c26" rx="4.5"/>
  <text x="300" y="72" fill="#57606a" font-size="10" font-family="Menlo,'Meslo LG','Helvetica Neue',monospace">8.3%</text>
  <text x="16" y="98" fill="#24292f" font-size="10" font-family="Menlo,'Meslo LG','Helvetica Neue',monospace">Rich Text Format</text>
  <rect x="110" y="93" width="10" height="9" fill="#0969da" rx="4.5"/>
  <text x="300" y="98" fill="#57606a" font-size="10" font-family="Menlo,'Meslo LG','Helvetica Neue',monospace">2.1%</text>
  <text x="16" y="124" fill="#24292f" font-size="10" font-family="Menlo,'Meslo LG','Helvetica Neue',monospace">TypeScript</text>
  <rect x="110" y="119" width="10" height="9" fill="#3178c6" rx="4.5"/>
  <text x="300" y="124" fill="#57606a" font-size="10" font-family="Menlo,'Meslo LG','Helvetica Neue',monospace">2.1%</text>
  <text x="16" y="150" fill="#24292f" font-size="10" font-family="Menlo,'Meslo LG','Helvetica Neue',monospace">C++</text>
  <rect x="110" y="145" width="10" height="9" fill="#f34b7d" rx="4.5"/>
  <text x="300" y="150" fill="#57606a" font-size="10" font-family="Menlo,'Meslo LG','Helvetica Neue',monospace">2.1%</text>
  <text x="16" y="176" fill="#24292f" font-size="10" font-family="Menlo,'Meslo LG','Helvetica Neue',monospace">CSS</text>
  <rect x="110" y="171" width="10" height="9" fill="#563d7c" rx="4.5"/>
  <text x="300" y="176" fill="#57606a" font-size="10" font-family="Menlo,'Meslo LG','Helvetica Neue',monospace">2.1%</text>
  <text x="16" y="202" fill="#24292f" font-size="10" font-family="Menlo,'Meslo LG','Helvetica Neue',monospace">Python</text>
  <rect x="110" y="197" width="10" height="9" fill="#3572A5" rx="4.5"/>
  <text x="300" y="202" fill="#57606a" font-size="10" font-family="Menlo,'Meslo LG','Helvetica Neue',monospace">2.1%</text>
</svg>